<svg xmlns="http://www.w3.org/2000/svg" fill="none" viewBox="0 0 160 130"><defs/><g clip-path="url(#clip0)"><path fill="url(#paint0_linear)" fill-rule="evenodd" d="M90 32c0-17.673 14.327-32 32-32 17.673 0 32 14.327 32 32v26c-8.837 0-16 7.163-16 16s7.163 16 16 16v92c0 17.673-14.327 32-32 32a31.867 31.867 0 01-14-3.217V75c0-12.653-7.343-23.59-18-28.783V32z" clip-rule="evenodd"/><rect width="62" height="212" x="41" y="48" stroke="url(#paint1_linear)" stroke-width="2" rx="31"/><rect width="14" height="14" x="144" y="67" stroke="#FF9901" stroke-width="2" rx="7"/></g><defs><linearGradient id="paint0_linear" x1="199" x2="90" y1="0" y2="214" gradientUnits="userSpaceOnUse"><stop offset=".427" stop-color="#4200FF"/><stop offset="1" stop-color="#4200FF" stop-opacity="0"/></linearGradient><linearGradient id="paint1_linear" x1="117" x2="17" y1="47" y2="235" gradientUnits="userSpaceOnUse"><stop offset=".234" stop-color="#F09"/><stop offset=".865" stop-color="#F09" stop-opacity="0"/></linearGradient><clipPath id="clip0"><path fill="#fff" d="M0 0h160v130H0z"/></clipPath></defs></svg>