<svg xmlns="http://www.w3.org/2000/svg" fill="none" viewBox="0 0 556 331"><defs/><g fill="#8091B2" clip-path="url(#clip0)" opacity=".1"><path d="M0 370l80-138.564 1.732 1L1.732 371zM15.588 379l80-138.564 1.732 1L17.32 380zM31.178 388l80-138.564 1.732 1L32.91 389zM46.766 397l80-138.564 1.732 1-80 138.564z"/><path d="M80 231.436l80-138.564 1.732 1-80 138.564zM95.588 240.436l80-138.564 1.732 1-80 138.564zM111.178 249.436l80-138.564 1.732 1-80 138.564zM126.766 258.436l80-138.564 1.732 1-80 138.564zM160 92.871l80-138.564 1.732 1-80 138.564zM175.588 101.871l80-138.564 1.732 1-80 138.564zM191.178 110.871l80-138.564 1.732 1-80 138.564zM206.766 119.871l80-138.564 1.732 1-80 138.564z"/><path d="M31.178 388l80-138.564 1.732 1L32.91 389zM46.766 397l80-138.564 1.732 1-80 138.564zM62.355 406l80-138.564 1.732 1-80 138.564zM77.943 415l80-138.564 1.732 1-80 138.564z"/><path d="M111.178 249.436l80-138.564 1.732 1-80 138.564zM126.766 258.436l80-138.564 1.732 1-80 138.564zM142.355 267.436l80-138.564 1.732 1-80 138.564zM157.943 276.436l80-138.564 1.732 1-80 138.564zM191.178 110.871l80-138.564 1.732 1-80 138.564zM206.766 119.871l80-138.564 1.732 1-80 138.564zM222.355 128.871l80-138.564 1.732 1-80 138.564zM237.943 137.871l80-138.564 1.732 1-80 138.564z"/><path d="M317.943-.691l80-138.564 1.732 1-80 138.564zM62.353 406l80-138.564 1.732 1-80 138.564zM77.941 415l80-138.564 1.732 1-80 138.564zM93.531 424l80-138.564 1.732 1-80 138.564zM109.119 433l80-138.564 1.732 1-80 138.564zM142.354 267.436l80-138.564 1.732 1-80 138.564zM157.941 276.436l80-138.564 1.732 1-80 138.564zM173.531 285.436l80-138.564 1.732 1-80 138.564zM189.119 294.436l80-138.564 1.732 1-80 138.564zM222.354 128.871l80-138.564 1.732 1-80 138.564z"/><path d="M237.941 137.871l80-138.564 1.732 1-80 138.564zM253.531 146.871l80-138.564 1.732 1-80 138.564zM269.119 155.871l80-138.564 1.732 1-80 138.564z"/><path d="M317.941-.691l80-138.564 1.732 1-80 138.564zM333.531 8.309l80-138.564 1.732 1-80 138.564zM349.12 17.309l80-138.564 1.731 1-80 138.564zM93.531 424l80-138.564 1.732 1-80 138.564zM109.119 433l80-138.564 1.732 1-80 138.564zM124.709 442l80-138.564 1.732 1-80 138.564zM140.297 451l80-138.564 1.732 1-80 138.564zM173.531 285.436l80-138.564 1.732 1-80 138.564zM189.119 294.436l80-138.564 1.732 1-80 138.564zM204.709 303.436l80-138.564 1.732 1-80 138.564zM220.297 312.436l80-138.564 1.732 1-80 138.564z"/><path d="M253.531 146.871l80-138.564 1.732 1-80 138.564zM269.119 155.871l80-138.564 1.732 1-80 138.564zM284.709 164.871l80-138.564 1.732 1-80 138.564zM300.297 173.871l80-138.564 1.732 1-80 138.564z"/><path d="M333.531 8.309l80-138.564 1.732 1-80 138.564zM349.12 17.309l80-138.564 1.731 1-80 138.564zM364.71 26.309l80-138.564 1.731 1-80 138.564zM380.297 35.309l80-138.564 1.732 1-80 138.564zM124.707 442l80-138.564 1.732 1-80 138.564zM140.295 451l80-138.564 1.732 1-80 138.564zM155.885 460l80-138.564 1.732 1-80 138.564zM171.473 469l80-138.564 1.732 1-80 138.564zM204.707 303.436l80-138.564 1.732 1-80 138.564zM220.295 312.436l80-138.564 1.732 1-80 138.564zM235.885 321.436l80-138.564 1.732 1-80 138.564zM251.473 330.436l80-138.564 1.732 1-80 138.564z"/><path d="M284.707 164.871l80-138.564 1.732 1-80 138.564zM300.295 173.871l80-138.564 1.732 1-80 138.564zM315.885 182.871l80-138.564 1.732 1-80 138.564zM331.473 191.871l80-138.564 1.732 1-80 138.564z"/><path d="M364.707 26.309l80-138.564 1.732 1-80 138.564zM380.295 35.309l80-138.564 1.732 1-80 138.564zM395.885 44.309l80-138.564 1.732 1-80 138.564zM411.473 53.309l80-138.564 1.732 1-80 138.564zM155.885 460l80-138.564 1.732 1-80 138.564zM171.473 469l80-138.564 1.732 1-80 138.564zM235.885 321.436l80-138.564 1.732 1-80 138.564zM251.473 330.436l80-138.564 1.732 1-80 138.564zM267.062 339.436l80-138.564 1.732 1-80 138.564zM282.65 348.436l80-138.564 1.732 1-80 138.564z"/><path d="M315.885 182.871l80-138.564 1.732 1-80 138.564zM331.473 191.871l80-138.564 1.732 1-80 138.564zM347.062 200.871l80-138.564 1.732 1-80 138.564zM362.65 209.871l80-138.564 1.732 1-80 138.564z"/><path d="M395.885 44.309l80-138.564 1.732 1-80 138.564zM411.473 53.309l80-138.564 1.732 1-80 138.564zM427.062 62.309l80-138.564 1.732 1-80 138.564zM442.65 71.309l80-138.564 1.732 1-80 138.564zM267.061 339.436l80-138.564 1.732 1-80 138.564zM282.648 348.436l80-138.564 1.732 1-80 138.564zM298.238 357.436l80-138.564 1.732 1-80 138.564zM313.826 366.436l80-138.564 1.732 1-80 138.564z"/><path d="M347.061 200.871l80-138.564 1.732 1-80 138.564zM362.648 209.871l80-138.564 1.732 1-80 138.564zM378.238 218.871l80-138.564 1.732 1-80 138.564zM393.826 227.871l80-138.564 1.732 1-80 138.564z"/><path d="M427.061 62.309l80-138.564 1.732 1-80 138.564zM442.648 71.309l80-138.564 1.732 1-80 138.564zM458.238 80.309l80-138.564 1.732 1-80 138.564zM473.826 89.309l80-138.564 1.732 1-80 138.564z"/></g><defs><clipPath id="clip0"><path fill="#fff" d="M0 0h556v331H0z"/></clipPath></defs></svg>